<svg width="24" height="24" viewBox="0 0 24 24" fill="none" xmlns="http://www.w3.org/2000/svg">
<path d="M19.2 12V21H4.80005V12" stroke="black" stroke-width="1.8" stroke-linecap="round" stroke-linejoin="round"/>
<path d="M21 7.5H3V12H21V7.5Z" stroke="black" stroke-width="1.8" stroke-linecap="round" stroke-linejoin="round"/>
<path d="M12 21V7.5" stroke="black" stroke-width="1.8" stroke-linecap="round" stroke-linejoin="round"/>
<path d="M12 7.5H7.94995C7.35321 7.5 6.78092 7.26295 6.35896 6.84099C5.937 6.41903 5.69995 5.84674 5.69995 5.25C5.69995 4.65326 5.937 4.08097 6.35896 3.65901C6.78092 3.23705 7.35321 3 7.94995 3C11.1 3 12 7.5 12 7.5Z" stroke="black" stroke-width="1.8" stroke-linecap="round" stroke-linejoin="round"/>
<path d="M12 7.5H16.05C16.6467 7.5 17.219 7.26295 17.641 6.84099C18.0629 6.41903 18.3 5.84674 18.3 5.25C18.3 4.65326 18.0629 4.08097 17.641 3.65901C17.219 3.23705 16.6467 3 16.05 3C12.9 3 12 7.5 12 7.5Z" stroke="black" stroke-width="1.8" stroke-linecap="round" stroke-linejoin="round"/>
</svg>
