<svg width="77" height="47" viewBox="0 0 77 47" fill="none" xmlns="http://www.w3.org/2000/svg">
<path d="M-3.60965e-05 17.556L0.721963 10.64H17.5939L18.3159 17.556H12.73V38H5.58596V17.556H-3.60965e-05ZM20.3858 38V10.64H29.8097C36.1177 10.64 39.3097 14.478 39.3097 20.786C39.3097 28.196 34.4077 30.894 27.5297 30.78V38H20.3858ZM27.5297 17.1V23.864H28.8977C31.3297 23.864 32.1657 22.23 32.1657 20.482C32.1657 18.734 31.3297 17.1 28.8977 17.1H27.5297ZM68.958 24.32C68.958 32.262 62.536 38.684 54.898 38.684C47.26 38.684 40.8381 32.262 40.8381 24.32C40.8381 16.378 47.26 9.95603 54.898 9.95603C62.536 9.95603 68.958 16.378 68.958 24.32ZM61.662 24.32C61.662 20.596 58.622 17.328 54.898 17.328C51.212 17.328 48.134 20.444 48.134 24.32C48.134 28.196 51.212 31.312 54.898 31.312C58.622 31.312 61.662 28.044 61.662 24.32Z" fill="#6829D7"/>
<circle cx="70.7179" cy="8.35997" r="3.8" stroke="#6829D7" stroke-width="3.04"/>
</svg>
